<svg xmlns="http://www.w3.org/2000/svg" xml:space="preserve" width="115mm" height="54mm" version="1.1" style="shape-rendering:geometricPrecision; text-rendering:geometricPrecision; image-rendering:optimizeQuality; fill-rule:evenodd; clip-rule:evenodd"
viewBox="0 0 11500 5400"
 xmlns:xlink="http://www.w3.org/1999/xlink">
 <defs>
  <style type="text/css">
   <![CDATA[
    .fil0 {fill:black}
   ]]>
  </style>
 </defs>
 <g id="Слой_x0020_1">
  <g id="_2821131237712">
   <path class="fil0" d="M9401 330l1506 869 53 91 0 1739 -53 91 -1506 870 -105 0 -1506 -870 -53 -91 0 -1739 53 -91 1506 -869 105 0zm-3473 1205l0 0 0 1233 -85 17 -125 -104 -1 -1146 211 0zm-53 -1205l0 0 -105 0 -1505 869 -54 91 0 1739 54 91 1505 870 105 0 1506 -870 53 -91 0 -1739 -53 -91 -1506 -869zm648 617l0 0 -700 -404 -1400 808 0 1618 1400 808 1400 -808 0 -1618 -700 -404zm-4732 652l0 0 421 876 13 28 93 193 -70 51 -157 -39 -490 -1018 190 -91zm1013 0l0 0 -417 867 0 0 63 132 166 -122 377 -786 -189 -91zm-454 -1269l0 0 -105 0 -1506 869 -53 91 0 1739 53 91 1506 870 105 0 1505 -870 54 -91 0 -1739 -54 -91 -1505 -869zm648 617l0 0 -701 -404 -1400 808 0 1618 1400 808 1400 -808 0 -1618 -699 -404zm7732 3855l0 0 0 241 -191 0 0 -244 -257 -430 201 0 160 268 160 -268 185 0 -258 433zm-1297 -281l0 0 -207 0 0 -152 604 0 0 152 -206 0 0 522 -191 0 0 -522zm-954 -152l0 0 190 0 0 674 -190 0 0 -674zm-619 0l0 0 0 674 -157 0 -298 -359 0 359 -187 0 0 -674 157 0 298 360 0 -360 187 0zm-1572 688l0 0c-100,0 -178,-27 -233,-82 -56,-55 -84,-132 -84,-232l0 -374 191 0 0 368c0,108 43,162 128,162 85,0 127,-54 127,-162l0 -368 188 0 0 374c0,100 -28,177 -83,232 -56,55 -134,82 -234,82zm-1105 -14l0 0 -2 -357 -173 291 -85 0 -172 -281 0 347 -177 0 0 -674 157 0 237 389 231 -389 157 0 2 674 -175 0zm-1403 0l0 0 -2 -357 -173 291 -85 0 -172 -281 0 347 -177 0 0 -674 157 0 237 389 231 -389 157 0 2 674 -175 0zm-1568 14l0 0c-71,0 -135,-15 -192,-45 -56,-31 -101,-72 -134,-126 -32,-53 -48,-113 -48,-180 0,-66 16,-126 48,-180 33,-53 78,-95 134,-125 57,-30 121,-45 192,-45 72,0 136,15 193,45 56,30 101,72 133,125 33,54 49,114 49,180 0,67 -16,127 -49,180 -32,54 -77,95 -133,126 -57,30 -121,45 -193,45zm0 -158l0 0c34,0 65,-8 93,-24 27,-16 49,-39 65,-68 16,-29 24,-63 24,-101 0,-37 -8,-71 -24,-100 -16,-29 -38,-52 -65,-68 -28,-16 -59,-24 -93,-24 -34,0 -64,8 -92,24 -28,16 -49,39 -65,68 -17,29 -25,63 -25,100 0,38 8,72 25,101 16,29 37,52 65,68 28,16 58,24 92,24zm-1184 158l0 0c-71,0 -134,-15 -190,-45 -56,-30 -100,-71 -132,-125 -33,-53 -49,-113 -49,-181 0,-67 16,-127 49,-181 32,-53 76,-94 132,-124 56,-30 119,-45 190,-45 62,0 117,11 167,33 49,21 90,53 123,94l-121 110c-44,-53 -97,-79 -159,-79 -37,0 -69,8 -98,24 -29,16 -51,39 -66,68 -16,29 -24,63 -24,100 0,38 8,72 24,101 15,29 37,52 66,68 29,16 61,24 98,24 62,0 115,-26 159,-79l121 110c-33,41 -74,72 -123,94 -50,22 -105,33 -167,33zm8006 -2280l0 0 0 -1234 -85 0 -125 103 0 1027 125 104 85 0zm98 -722l0 0 0 210 415 0 0 -210 -415 0zm0 511l0 0 0 211 638 -2 103 -125 -16 -85 -725 1zm0 -812l0 0 725 1 16 -85 -103 -126 -638 -1 0 211zm917 -807l0 0 -701 -404 -1400 808 0 1618 1400 808 1400 -808 0 -1618 -699 -404z"/>
  </g>
 </g>
</svg>
